<?xml version="1.0" standalone="no"?>
<svg viewBox="0 0 200 200" xmlns="http://www.w3.org/2000/svg">
  <path fill="#A7F0BA" d="M21,-39.2C27.9,-32.3,34.8,-28.2,45.4,-22.1C56.1,-16,70.6,-8,76.5,3.4C82.4,14.8,79.7,29.7,72.5,41.7C65.3,53.7,53.5,63,40.6,66.7C27.8,70.4,13.9,68.5,-0.4,69.2C-14.8,70,-29.5,73.3,-38.8,67.6C-48,61.8,-51.8,47,-58.1,34.2C-64.4,21.4,-73.2,10.7,-72.5,0.4C-71.8,-9.9,-61.6,-19.8,-56.2,-34.1C-50.7,-48.3,-50.1,-67,-41.5,-72.9C-33,-78.9,-16.5,-72.1,-4.7,-63.9C7,-55.7,14,-46.1,21,-39.2Z" transform="translate(100 100)" />
</svg>
