<?xml version="1.0" standalone="no"?>
<svg viewBox="0 0 200 200" xmlns="http://www.w3.org/2000/svg">
  <path fill="#E8DAFF" d="M39.8,-74C48.1,-64.3,48.7,-46.4,56.5,-32.7C64.3,-19,79.3,-9.5,83.1,2.2C86.9,13.9,79.6,27.8,67.6,34.2C55.5,40.6,38.9,39.5,26.8,41C14.8,42.5,7.4,46.6,-3.9,53.4C-15.2,60.2,-30.5,69.7,-41.5,67.6C-52.4,65.5,-59.2,51.7,-61.2,38.6C-63.2,25.4,-60.5,12.7,-62.3,-1C-64.1,-14.7,-70.3,-29.5,-63.9,-35C-57.5,-40.6,-38.3,-36.9,-25.6,-44.1C-12.8,-51.2,-6.4,-69.1,4.7,-77.3C15.8,-85.4,31.6,-83.8,39.8,-74Z" transform="translate(100 100)" />
</svg>
